/* XPM */
static char * 1_xpm[] = {
"1 14 2 1",
" 	c #1e1e1c",
"#	c #323233",
" ",
" ",
" ",
" ",
" ",
" ",
" ",
" ",
"#",
" ",
" ",
" ",
" ",
" "};
