/* XPM */
static char * maximizeA_xpm[] = {
"18 38 4 1",
" 	c #FFFFFF",
".	c #A6A6A6",
"+	c #C0C7CF",
"@	c #000000",
"                 .",
" +++++++++++++++..",
" +++++++++++++++..",
" +++++++++++++++..",
" +++++++++++++++..",
" +++++++++++++++..",
" +++++++++++++++..",
" +++++++@+++++++..",
" ++++++@@@++++++..",
" +++++@@@@@+++++..",
" ++++@@@@@@@++++..",
" +++++++++++++++..",
" +++++++++++++++..",
" +++++++++++++++..",
" +++++++++++++++..",
" +++++++++++++++..",
" .................",
"..................",
"@@@@@@@@@@@@@@@@@@",
"................. ",
".+++++++++++++++  ",
".+++++++++++++++  ",
".+++++++++++++++  ",
".+++++++++++++++  ",
".+++++++++++++++  ",
".+++++++++++++++  ",
".+++++++@+++++++  ",
".++++++@@@++++++  ",
".+++++@@@@@+++++  ",
".++++@@@@@@@++++  ",
".+++++++++++++++  ",
".+++++++++++++++  ",
".+++++++++++++++  ",
".+++++++++++++++  ",
".+++++++++++++++  ",
".                 ",
"                  ",
"@@@@@@@@@@@@@@@@@@"};
