/* XPM */
static char * minimizeI_xpm[] = {
"20 38 5 1",
" 	c #000000",
".	c #FFFFFF",
"+	c #A6A6A6",
"@	c #C6C6C6",
"#	c #C0C7CF",
" .................+ ",
" .@@@@@@@@@@@@@@@++ ",
" .@@@@@@@@@@@@@@@++ ",
" .@@@@@@@@@@@@@@@++ ",
" .@@@@@@@@@@@@@@@++ ",
" .@@@@@@@@@@@@@@@++ ",
" .@@@@@@@@@@@@@@@++ ",
" .@@@@       @@@@++ ",
" .@@@@@     @@@@@++ ",
" .@@@@@@   @@@@@@++ ",
" .@@@@@@@ @@@@@@@++ ",
" .@@@@@@@@@@@@@@@++ ",
" .@@@@@@@@@@@@@@@++ ",
" .@@@@@@@@@@@@@@@++ ",
" .@@@@@@@@@@@@@@@++ ",
" .@@@@@@@@@@@@@@@++ ",
" .+++++++++++++++++ ",
" ++++++++++++++++++ ",
"                    ",
" +++++++++++++++++. ",
" +###############.. ",
" +###############.. ",
" +###############.. ",
" +###############.. ",
" +###############.. ",
" +###############.. ",
" +####       ####.. ",
" +#####     #####.. ",
" +######   ######.. ",
" +####### #######.. ",
" +###############.. ",
" +###############.. ",
" +###############.. ",
" +###############.. ",
" +###############.. ",
" +................. ",
" .................. ",
"                    "};
